<?xml version="1.0" standalone="no"?>
<!DOCTYPE svg PUBLIC "-//W3C//DTD SVG 20010904//EN"
 "http://www.w3.org/TR/2001/REC-SVG-20010904/DTD/svg10.dtd">
<svg version="1.0" xmlns="http://www.w3.org/2000/svg"
 width="760.000000pt" height="760.000000pt" viewBox="0 0 760.000000 760.000000"
 preserveAspectRatio="xMidYMid meet">
<metadata>
Created by potrace 1.14, written by Peter Selinger 2001-2017
</metadata>
<g transform="translate(0.000000,760.000000) scale(0.100000,-0.100000)"
fill="#000000" stroke="none">
<path d="M0 5965 l0 -1635 63 41 c246 160 557 240 877 226 361 -16 671 -153
911 -405 l89 -93 0 211 0 210 410 0 410 0 0 -1585 0 -1585 -385 0 -385 0 -2
232 -3 231 -52 -70 c-164 -220 -429 -378 -756 -450 -128 -28 -495 -25 -634 5
-171 37 -364 114 -478 192 -22 14 -46 30 -52 34 -10 6 -13 -149 -13 -758 l0
-766 3800 0 3800 0 0 675 0 674 -91 3 -91 3 -392 1060 c-216 583 -418 1131
-451 1218 -32 87 -61 155 -66 150 -4 -4 -203 -546 -442 -1203 -240 -657 -439
-1203 -442 -1213 -7 -16 -37 -17 -441 -17 -239 0 -434 2 -434 5 0 3 302 765
671 1692 l671 1686 -43 116 c-120 326 -194 477 -271 554 -167 167 -519 168
-762 2 -21 -14 -39 -25 -41 -23 -3 5 -105 632 -105 649 0 20 111 79 249 134
133 53 249 75 431 82 536 20 835 -147 1058 -592 86 -171 153 -338 574 -1430
225 -583 411 -1062 414 -1064 2 -2 4 995 4 2217 l0 2222 -3800 0 -3800 0 0
-1635z m4560 -2725 l0 -320 -610 0 -610 0 0 320 0 320 610 0 610 0 0 -320z"/>
<path d="M872 3909 c-204 -34 -426 -173 -548 -344 -60 -86 -120 -216 -152
-333 -24 -89 -26 -113 -26 -292 0 -179 2 -203 26 -291 50 -186 116 -307 232
-428 192 -199 442 -286 745 -259 406 36 721 329 818 763 20 87 22 317 4 400
-49 229 -135 392 -286 540 -127 124 -276 204 -448 239 -83 17 -275 20 -365 5z"/>
</g>
</svg>
