<?xml version="1.0" standalone="no"?>
<!DOCTYPE svg PUBLIC "-//W3C//DTD SVG 20010904//EN"
 "http://www.w3.org/TR/2001/REC-SVG-20010904/DTD/svg10.dtd">
<svg version="1.0" xmlns="http://www.w3.org/2000/svg"
 width="760.000000pt" height="760.000000pt" viewBox="0 0 760.000000 760.000000"
 preserveAspectRatio="xMidYMid meet">
<metadata>
Created by potrace 1.14, written by Peter Selinger 2001-2017
</metadata>
<g transform="translate(0.000000,760.000000) scale(0.100000,-0.100000)"
fill="#000000" stroke="none">
<path d="M0 5965 l0 -1636 42 29 c139 95 369 186 548 216 504 84 954 -54 1268
-390 l82 -87 0 212 0 211 410 0 410 0 0 -1585 0 -1585 -385 0 -385 0 -2 232
-3 232 -53 -72 c-164 -221 -429 -377 -763 -449 -129 -28 -487 -25 -622 5 -183
40 -340 103 -472 186 -27 18 -56 36 -62 40 -10 6 -13 -149 -13 -758 l0 -766
3800 0 3800 0 0 675 0 674 -91 3 -91 3 -448 1213 c-247 668 -451 1216 -454
1220 -3 3 -7 3 -9 1 -2 -2 -201 -546 -442 -1209 -241 -663 -440 -1211 -442
-1218 -4 -9 -101 -12 -440 -12 -410 0 -435 1 -429 18 4 9 307 770 673 1691
655 1646 666 1675 653 1710 -39 114 -168 427 -201 491 -96 186 -237 269 -457
270 -138 0 -315 -54 -409 -126 -24 -18 -34 -21 -37 -12 -8 23 -106 615 -106
636 0 16 24 32 113 75 238 116 358 142 647 142 270 -1 411 -32 577 -127 167
-95 293 -245 413 -493 96 -197 130 -283 575 -1435 197 -509 368 -952 381 -985
l23 -60 1 2228 0 2227 -3800 0 -3800 0 0 -1635z m4560 -2725 l0 -320 -610 0
-610 0 0 320 0 320 610 0 610 0 0 -320z"/>
<path d="M872 3909 c-169 -28 -320 -107 -448 -234 -122 -120 -171 -200 -230
-370 -54 -153 -70 -400 -39 -577 68 -393 329 -677 690 -753 107 -23 304 -23
410 0 444 94 756 525 731 1010 -23 456 -328 832 -746 921 -72 15 -284 17 -368
3z"/>
</g>
</svg>
